<?xml version="1.0" encoding="utf-8"?>
<!-- Generator: Adobe Illustrator 22.1.0, SVG Export Plug-In . SVG Version: 6.00 Build 0)  -->
<svg version="1.1" id="Livello_1" xmlns="http://www.w3.org/2000/svg" xmlns:xlink="http://www.w3.org/1999/xlink" x="0px" y="0px"
	 viewBox="0 0 300 140" style="enable-background:new 0 0 300 140;" xml:space="preserve">
<style type="text/css">
	.st0{fill:#12110B;}
</style>
<g>
	<path class="st0" d="M127.8,69.2c0-13.7-11.1-24.8-24.8-24.8S78.2,55.5,78.2,69.2S89.3,94.1,103,94.1c5.3,0,10.1-1.6,14.1-4.4
		l4.9,4.9l6.8-6.8l-5-5C126.3,78.9,127.8,74.2,127.8,69.2z M103,84.8c-8.6,0-15.5-7-15.5-15.5s7-15.5,15.5-15.5s15.5,7,15.5,15.5
		c0,2.4-0.6,4.7-1.5,6.7l-3.4-3.4l-6.8,6.8l3.6,3.6C108.2,84.1,105.6,84.8,103,84.8z"/>
	<path class="st0" d="M197.5,45.4c-5.3,0-19.6,0-23.4,0c0,0,0,16.1,0,23.9c0,7.8,0,23.9,0,23.9c5.6,0,18.1,0,23.4,0
		c12.9,0,23.4-10.7,23.4-23.9S210.4,45.4,197.5,45.4z M197.5,83.6h-13.8V69.2V54.9h13.8c7.6,0,13.8,6.4,13.8,14.3
		S205.1,83.6,197.5,83.6z"/>
	<rect x="144.5" y="45.4" class="st0" width="10" height="47.7"/>
	<path class="st0" d="M56.2,69.2c0,8.5-6.4,14.3-14.3,14.3S27.5,78,27.5,69.2c0-2.8,0-18.2,0-23.9H18c0,3.8,0,18.5,0,23.9
		c0,13.2,10.7,23.9,23.9,23.9s23.9-10.7,23.9-23.9c0-6.3,0-18.1,0-23.9h-9.5C56.2,51.3,56.2,65.9,56.2,69.2z"/>
	<path class="st0" d="M257.2,44.4c-13.7,0-24.8,11.1-24.8,24.8s11.1,24.8,24.8,24.8c13.7,0,24.8-11.1,24.8-24.8
		S270.9,44.4,257.2,44.4z M257.2,84.8c-8.6,0-15.5-7-15.5-15.5s7-15.5,15.5-15.5c8.6,0,15.5,7,15.5,15.5S265.7,84.8,257.2,84.8z"/>
</g>
</svg>
